# xmcd CD database file
#
# Track frame offsets:
#	150
#	12238
#	28956
#	44365
#	55796
#	80080
#
# Disc length: 1212 seconds
#
# Revision: 0
# Processed by: cddbd v1.5.1PL0 Copyright (c) Steve Scherf et al.
# Submitted via: CDex 1.51
#
DISCID=4804ba06
DTITLE=lisa bonilla - east side swing
DYEAR=1900
DGENRE=Jazz
TTITLE0=let's fall in love
TTITLE1=fever
TTITLE2=smile
TTITLE3=kalamazoo
TTITLE4=besame mucho
TTITLE5=love is here to stay
EXTD=
EXTT0=
EXTT1=
EXTT2=
EXTT3=
EXTT4=
EXTT5=
PLAYORDER=
